#!OML:ASF F:\VICON\USERDATA\INSTALL\rory3\rory3.ASF
:FULLY-SPECIFIED
:DEGREES
73
root -0.26417052041132505 17.335722561466156 45.34214258339878 3.526071285988205 1.837629578515718 -0.369034086164306
lfemur 6.837130756262711 -2.8711191178851765 -26.90129070070332
ltibia 36.544067633859704
lfoot -10.339481101367626 -2.083079662591035
ltoes -25.00920871695179
rfemur -50.66889183439079 -5.64186658413343 22.336812151220307
rtibia 95.72695010559751
rfoot 0.9758222435204846 -5.454512978991257
rtoes 2.8973027019182007
lowerback 15.416167787741147 -0.6921898402121158 -2.7144068235866365
upperback -1.0377537981333829 -1.33665046732261 1.0760186163392236
thorax -9.87463748165084 -0.43320662153167844 3.5059510609775812
lowerneck -21.70176017038707 -2.3894701669041174 -2.2253557425874115
upperneck 14.460113267414538 -3.24689134135851 3.218430880769721
head 7.971904814639932 -1.2729803866790972 1.030268603241807
lclavicle -2.3878049792651104e-15 1.305654449610009e-15
lhumerus -30.583491370508607 -17.52278278905143 96.78080699223723
lradius 116.00727970509304
lwrist 37.02506286587502
lhand -25.646621314638406 0.3406193164868361
lfingers 7.12502
lthumb 0.8870205706989738 30.342193370439517
rclavicle -2.3878049792651104e-15 1.305654449610009e-15
rhumerus -60.68906590756326 5.8325346022911955 -100.80898053334822
rradius 105.48041176377009
rwrist -13.698581789739087
rhand -14.46990274925626 38.64550000591984
rfingers 7.12502
rthumb 11.677129647465215 9.308624195703365
74
root -0.23269718777823276 17.57756753210529 46.45362452861161 3.8620532476369873 0.8831971303101149 -0.7806197851137437
lfemur 11.099305462963008 -2.6280325615620588 -26.42066351192093
ltibia 32.950390178971475
lfoot -2.654397508366116 -5.086467436386339
ltoes -27.254585461144913
rfemur -51.47266750826869 -4.010774469200303 23.30862038528644
rtibia 86.42536535254018
rfoot 0.7922824549606675 -4.5870484772537985
rtoes 0.34505107573066507
lowerback 14.826153543722711 -1.0327209474857788 -2.4748534808213076
upperback -1.358467451847898 -1.7091643356403292 1.5686514184648652
thorax -9.767679808688756 -0.6043126810686154 3.9712055003543356
lowerneck -21.49891431459677 -2.0084753556314165 -2.390468511440036
upperneck 14.831842259503459 -2.649375314821178 2.97618671006368
head 8.02985881243231 -1.0235254616549803 1.0357933876602223
lclavicle -2.3360148698746036e-15 1.343219524079146e-15
lhumerus -30.118796332764603 -17.161113862513556 95.90117671436819
lradius 117.95749125674992
lwrist 37.74821101667775
lhand -25.431760387520708 0.2439682689918361
lfingers 7.12502
lthumb 1.0945200707858325 30.238411548625017
rclavicle -2.3360148698746036e-15 1.343219524079146e-15
rhumerus -62.89575267360726 5.654885672362322 -100.02060633689555
rradius 106.48799756727819
rwrist -13.98357184880533
rhand -14.288891007717119 38.698199074342114
rfingers 7.12502
rthumb 11.851881423283253 9.347674859994127
75
root -0.19125035053022368 17.818915203772686 47.71967263899875 4.194309110888896 -0.11159917991404511 -1.1117699695279548
lfemur 14.929395970656008 -2.5070979494153303 -25.988230189070354
ltibia 30.186575343783954
lfoot 5.56375480529719 -7.822433944073297
ltoes -26.878543995794686
rfemur -50.981768842045966 -2.160189116451865 24.21528941185182
rtibia 76.348123832778
rfoot 1.1704500646664195 -3.4105229071803262
rtoes -2.3717253174893806
lowerback 14.264806178361601 -1.252334743572995 -2.1407290350030967
upperback -1.6809778375784727 -1.9077260128643818 2.015142761290872
thorax -9.660734356081939 -0.7012327288655084 4.322001813830538
lowerneck -21.198797697569834 -1.6993740793763226 -2.5833473464012666
upperneck 15.238757581525759 -2.1464090020083533 2.7952657126561267
head 8.099116413414158 -0.8189601313218853 1.0561392975873054
lclavicle -1.963511786814684e-15 1.6134082549442615e-15
lhumerus -30.037296068067445 -17.113849755242473 95.12543744173912
lradius 119.28957747915138
lwrist 37.74867632055392
lhand -25.05846996072803 0.24361530621102823
lfingers 7.12502
lthumb 1.4550336344427401 30.230364041998193
rclavicle -1.963511786814684e-15 1.6134082549442615e-15
rhumerus -64.76720545525993 5.123135910959092 -98.9173647528908
rradius 107.43809023527643
rwrist -13.938574090396655
rhand -14.228830438473828 38.776886241805094
rfingers 7.12502
rthumb 11.909907408093826 9.401368403038436
76
root -0.15397525518418878 18.015386753745243 48.62920438650063 4.451502542136142 -1.0811732763630495 -1.3723091492871782
lfemur 17.31598945555539 -2.835634220239199 -25.905598294165898
ltibia 28.023163429634607
lfoot 12.65470341230945 -10.098185317672943
ltoes -24.578777465268523
rfemur -50.18418986737109 -0.6213670263719921 24.826756955516363
rtibia 65.44645515747277
rfoot 1.509887029947079 -2.412680467873474
rtoes -5.418772528036195
lowerback 13.737161410321796 -1.4410765285127454 -1.892601157474058
upperback -2.0096976203506243 -2.082837493252498 2.322116784791273
thorax -9.591086682867651 -0.7867944599131774 4.46782980281829
lowerneck -20.893566808201296 -1.5033287910928443 -2.783415341977594
upperneck 15.569537209908537 -1.8117623904781408 2.645044697125478
head 8.152437429648852 -0.6883373555446128 1.0709523328454709
lclavicle -2.1803091455852207e-15 1.4561580151922386e-15
lhumerus -30.59707588119838 -17.522733003800393 94.38933144472132
lradius 119.75270077171193
lwrist 37.06099077189722
lhand -24.670305424954787 0.1539970464807543
lfingers 7.12502
lthumb 1.8299282784762003 30.135609251110374
rclavicle -2.1803091455852207e-15 1.4561580151922386e-15
rhumerus -66.56376672702967 4.116942818696352 -97.71116890030265
rradius 108.20558990647727
rwrist -13.716697186616958
rhand -14.273480552380416 38.84072288479714
rfingers 7.12502
rthumb 11.866884426442116 9.436881832152766
